# Hierarchical Translation and Rotation (.htr) file
# Generated by EVaRT
[Header]
FileType htr
DataType HTRS
FileVersion 1
NumSegments 23
NumFrames 4
DataFrameRate 120
EulerRotationOrder ZYX
CalibrationUnits mm
RotationUnits Degrees
GlobalAxisofGravity Y
BoneLengthAxis Y
ScaleFactor 1
[SegmentNames&Hierarchy]
#CHILD            PARENT
DaveRoot          GLOBAL
Spine1            DaveRoot
Spine2            Spine1
Spine3            Spine2
Spine4            Spine3
Neck              Spine4
Head              Neck
LClavicle         Spine4
LUpperArm         LClavicle
LLowerArm         LUpperArm
LHand             LLowerArm
RClavicle         Spine4
RUpperArm         RClavicle
RLowerArm         RUpperArm
RHand             RLowerArm
RUpperLeg         DaveRoot
RLowerLeg         RUpperLeg
RFoot             RLowerLeg
RToes             RFoot
LUpperLeg         DaveRoot
LLowerLeg         LUpperLeg
LFoot             LLowerLeg
LToes             LFoot
[BasePosition]
#SegmentName      Tx   Ty   Tz   Rx   Ry   Rz   BoneLength
DaveRoot          30.502683	1014.050144	-392.030244	16.346492	-1.112010	-1.464339	100.000000
Spine1            0.000000	100.000000	0.000000	-16.708095	0.289044	-0.213389	100.000000
Spine2            0.000000	100.000000	0.000000	4.757952	0.249599	-0.116624	100.000000
Spine3            0.000000	100.000000	0.000000	11.084253	0.260929	-0.088411	100.000000
Spine4            0.000000	100.000000	0.000000	12.228282	1.332274	1.443083	100.000000
Neck              0.000000	100.000000	0.000000	10.147668	18.171820	1.381874	80.000000
Head              0.000000	80.000000	0.000000	-46.518491	-1.401195	-5.185409	200.000000
LClavicle         0.000000	100.000000	0.000000	-3.689620	-1.992124	-101.831237	200.000000
LUpperArm         0.000000	200.000000	0.000000	-0.284445	-3.207106	1.762499	300.000000
LLowerArm         0.000000	300.000000	0.000000	9.834184	2.175812	1.895763	200.000000
LHand             0.000000	200.000000	0.000000	-2.090742	-1.768569	8.793625	120.000000
RClavicle         0.000000	100.000000	0.000000	-0.558465	-3.870894	107.984856	200.000000
RUpperArm         0.000000	200.000000	0.000000	6.860362	-6.098052	-15.811317	300.000000
RLowerArm         0.000000	300.000000	0.000000	5.698581	-3.682026	-7.348670	200.000000
RHand             0.000000	200.000000	0.000000	-4.626921	6.468423	-3.971303	120.000000
RUpperLeg         -115.911102	-10.000000	31.058285	22.974686	25.481186	-170.503396	530.000000
RLowerLeg         0.000000	530.000000	0.000000	-7.725558	0.479387	-2.520024	460.000000
RFoot             0.000000	460.000000	0.000000	81.786251	-5.006629	-0.462861	130.000000
RToes             0.000000	130.000000	0.000000	20.181248	0.005479	-0.002881	100.000000
LUpperLeg         115.911102	-10.000000	31.058285	21.582405	10.065134	-177.228489	530.000000
LLowerLeg         0.000000	530.000000	0.000000	-4.243927	-3.275937	3.046484	460.000000
LFoot             0.000000	460.000000	0.000000	77.706358	-14.203819	16.055021	130.000000
LToes             0.000000	130.000000	0.000000	27.168776	-0.000000	-0.000086	100.000000
#Beginning of Data.
[DaveRoot]
#Fr	Tx	Ty	Tz	Rx	Ry	Rz	SF
1542	-71.367012	-6.257852	479.033329	-56.312546	-73.176900	72.717523	1.000000	
1543	-74.927395	-6.633211	477.153967	-55.133074	-73.211859	71.315872	1.000000	
1544	-78.491660	-6.907739	475.281691	-54.013327	-73.248495	70.105075	1.000000	
1545	-81.997005	-7.295226	473.267805	-52.883395	-73.307286	68.647893	1.000000	
[Spine1]
#Fr	Tx	Ty	Tz	Rx	Ry	Rz	SF
1542	0.000000	0.000000	0.000000	1.028786	-0.714413	-2.843111	1.000000	
1543	0.000000	0.000000	0.000000	1.142694	-0.778944	-2.729361	1.000000	
1544	0.000000	0.000000	0.000000	1.021340	-0.747434	-2.600949	1.000000	
1545	0.000000	0.000000	0.000000	1.265024	-0.862656	-2.453988	1.000000	
[Spine2]
#Fr	Tx	Ty	Tz	Rx	Ry	Rz	SF
1542	0.000000	0.000000	0.000000	1.028786	-0.714413	-2.843111	1.000000	
1543	0.000000	0.000000	0.000000	1.142694	-0.778944	-2.729361	1.000000	
1544	0.000000	0.000000	0.000000	1.021340	-0.747434	-2.600949	1.000000	
1545	0.000000	0.000000	0.000000	1.265024	-0.862656	-2.453988	1.000000	
[Spine3]
#Fr	Tx	Ty	Tz	Rx	Ry	Rz	SF
1542	0.000000	0.000000	0.000000	1.028786	-0.714413	-2.843111	1.000000	
1543	0.000000	0.000000	0.000000	1.142694	-0.778944	-2.729361	1.000000	
1544	0.000000	0.000000	0.000000	1.021340	-0.747434	-2.600949	1.000000	
1545	0.000000	0.000000	0.000000	1.265024	-0.862656	-2.453988	1.000000	
[Spine4]
#Fr	Tx	Ty	Tz	Rx	Ry	Rz	SF
1542	0.000000	0.000000	0.000000	1.028786	-0.714413	-2.843111	1.000000	
1543	0.000000	0.000000	0.000000	1.142694	-0.778944	-2.729361	1.000000	
1544	0.000000	0.000000	0.000000	1.021340	-0.747434	-2.600949	1.000000	
1545	0.000000	0.000000	0.000000	1.265024	-0.862656	-2.453988	1.000000	
[Neck]
#Fr	Tx	Ty	Tz	Rx	Ry	Rz	SF
1542	0.000000	0.000000	0.000000	-0.452981	-19.060324	8.544114	1.000000	
1543	0.000000	0.000000	0.000000	-0.827618	-18.840461	8.427271	1.000000	
1544	0.000000	0.000000	0.000000	-0.292914	-18.918797	8.264109	1.000000	
1545	0.000000	0.000000	0.000000	-1.075560	-18.536775	8.018469	1.000000	
[Head]
#Fr	Tx	Ty	Tz	Rx	Ry	Rz	SF
1542	0.000000	0.000000	0.000000	-0.452981	-19.060324	8.544114	1.000000	
1543	0.000000	0.000000	0.000000	-0.827618	-18.840461	8.427271	1.000000	
1544	0.000000	0.000000	0.000000	-0.292914	-18.918797	8.264109	1.000000	
1545	0.000000	0.000000	0.000000	-1.075560	-18.536775	8.018469	1.000000	
[LClavicle]
#Fr	Tx	Ty	Tz	Rx	Ry	Rz	SF
1542	0.000000	0.000000	0.000000	16.979626	1.530709	-7.629285	1.000000	
1543	0.000000	0.000000	0.000000	15.533984	1.455045	-7.849127	1.000000	
1544	0.000000	0.000000	0.000000	16.630249	1.617459	-8.027975	1.000000	
1545	0.000000	0.000000	0.000000	13.698137	1.339813	-8.109156	1.000000	
[LUpperArm]
#Fr	Tx	Ty	Tz	Rx	Ry	Rz	SF
1542	0.000000	0.000000	0.000000	32.866091	39.723279	-21.459376	1.000000	
1543	0.000000	0.000000	0.000000	42.958750	44.049822	-15.384333	1.000000	
1544	0.000000	0.000000	0.000000	36.059308	41.597441	-19.891654	1.000000	
1545	0.000000	0.000000	0.000000	50.107104	45.499089	-11.624276	1.000000	
[LLowerArm]
#Fr	Tx	Ty	Tz	Rx	Ry	Rz	SF
1542	0.000000	0.000000	0.000000	7.546384	0.000000	0.000000	1.000000	
1543	0.000000	0.000000	0.000000	-6.297611	0.000000	0.000000	1.000000	
1544	0.000000	0.000000	0.000000	2.854208	0.000000	0.000000	1.000000	
1545	0.000000	0.000000	0.000000	-13.733227	0.000000	0.000000	1.000000	
[LHand]
#Fr	Tx	Ty	Tz	Rx	Ry	Rz	SF
1542	0.000000	0.000000	0.000000	3.683317	-0.000000	-0.000000	1.000000	
1543	0.000000	0.000000	0.000000	14.598385	-0.000000	-0.000000	1.000000	
1544	0.000000	0.000000	0.000000	7.319430	-0.000000	-0.000000	1.000000	
1545	0.000000	0.000000	0.000000	20.338281	-0.000000	-0.000000	1.000000	
[RClavicle]
#Fr	Tx	Ty	Tz	Rx	Ry	Rz	SF
1542	0.000000	0.000000	0.000000	7.619306	-1.619025	11.739974	1.000000	
1543	0.000000	0.000000	0.000000	7.185698	-1.521617	11.707746	1.000000	
1544	0.000000	0.000000	0.000000	7.411460	-1.537204	11.466474	1.000000	
1545	0.000000	0.000000	0.000000	6.737246	-1.384319	11.371832	1.000000	
[RUpperArm]
#Fr	Tx	Ty	Tz	Rx	Ry	Rz	SF
1542	0.000000	0.000000	0.000000	27.553515	-26.282972	44.410899	1.000000	
1543	0.000000	0.000000	0.000000	28.848044	-27.238251	43.148709	1.000000	
1544	0.000000	0.000000	0.000000	27.686413	-26.720415	44.203754	1.000000	
1545	0.000000	0.000000	0.000000	30.126769	-28.200844	41.930425	1.000000	
[RLowerArm]
#Fr	Tx	Ty	Tz	Rx	Ry	Rz	SF
1542	0.000000	0.000000	0.000000	11.836966	0.000000	0.000000	1.000000	
1543	0.000000	0.000000	0.000000	10.965540	0.000000	0.000000	1.000000	
1544	0.000000	0.000000	0.000000	11.860154	0.000000	0.000000	1.000000	
1545	0.000000	0.000000	0.000000	10.470448	0.000000	0.000000	1.000000	
[RHand]
#Fr	Tx	Ty	Tz	Rx	Ry	Rz	SF
1542	0.000000	0.000000	0.000000	7.108557	-10.003607	2.486538	1.000000	
1543	0.000000	0.000000	0.000000	8.032955	-9.377670	2.457826	1.000000	
1544	0.000000	0.000000	0.000000	7.275247	-9.542906	2.459424	1.000000	
1545	0.000000	0.000000	0.000000	8.787984	-8.616277	2.313451	1.000000	
[RUpperLeg]
#Fr	Tx	Ty	Tz	Rx	Ry	Rz	SF
1542	0.000000	0.000000	0.000000	8.612782	2.560996	4.382914	1.000000	
1543	0.000000	0.000000	0.000000	8.225968	2.560987	4.377978	1.000000	
1544	0.000000	0.000000	0.000000	7.971717	2.561038	4.436077	1.000000	
1545	0.000000	0.000000	0.000000	7.487442	2.719862	4.426605	1.000000	
[RLowerLeg]
#Fr	Tx	Ty	Tz	Rx	Ry	Rz	SF
1542	0.000000	0.000000	0.000000	-1.404137	-0.000000	0.000000	1.000000	
1543	0.000000	0.000000	0.000000	-1.545962	0.000000	0.000000	1.000000	
1544	0.000000	0.000000	0.000000	-1.720401	-0.000000	0.000000	1.000000	
1545	0.000000	0.000000	0.000000	-1.892088	0.000000	0.000000	1.000000	
[RFoot]
#Fr	Tx	Ty	Tz	Rx	Ry	Rz	SF
1542	0.000000	0.000000	0.000000	-7.696219	-0.063961	-0.817760	1.000000	
1543	0.000000	0.000000	0.000000	-7.490399	-0.793676	-1.325974	1.000000	
1544	0.000000	0.000000	0.000000	-7.250864	-1.464612	-1.724153	1.000000	
1545	0.000000	0.000000	0.000000	-7.005246	-2.102801	-2.007014	1.000000	
[RToes]
#Fr	Tx	Ty	Tz	Rx	Ry	Rz	SF
1542	0.000000	0.000000	0.000000	-5.577440	-0.000000	0.000000	1.000000	
1543	0.000000	0.000000	0.000000	-4.929958	-0.000000	0.000000	1.000000	
1544	0.000000	0.000000	0.000000	-4.383697	-0.000000	0.000000	1.000000	
1545	0.000000	0.000000	0.000000	-3.860212	-0.000000	0.000000	1.000000	
[LUpperLeg]
#Fr	Tx	Ty	Tz	Rx	Ry	Rz	SF
1542	0.000000	0.000000	0.000000	-5.945348	-3.995564	-1.065266	1.000000	
1543	0.000000	0.000000	0.000000	-5.924879	-4.118326	-0.722576	1.000000	
1544	0.000000	0.000000	0.000000	-5.879249	-4.158546	-0.404653	1.000000	
1545	0.000000	0.000000	0.000000	-5.991746	-4.172369	-0.041163	1.000000	
[LLowerLeg]
#Fr	Tx	Ty	Tz	Rx	Ry	Rz	SF
1542	0.000000	0.000000	0.000000	-7.858609	-0.000000	-0.000000	1.000000	
1543	0.000000	0.000000	0.000000	-8.734315	-0.000000	-0.000000	1.000000	
1544	0.000000	0.000000	0.000000	-9.372511	0.000000	-0.000000	1.000000	
1545	0.000000	0.000000	0.000000	-10.162458	-0.000000	-0.000000	1.000000	
[LFoot]
#Fr	Tx	Ty	Tz	Rx	Ry	Rz	SF
1542	0.000000	0.000000	0.000000	2.597036	-2.898281	24.738998	1.000000	
1543	0.000000	0.000000	0.000000	3.216880	-3.640495	24.173334	1.000000	
1544	0.000000	0.000000	0.000000	3.665509	-4.178926	23.761757	1.000000	
1545	0.000000	0.000000	0.000000	4.240166	-4.988464	23.221959	1.000000	
[LToes]
#Fr	Tx	Ty	Tz	Rx	Ry	Rz	SF
1542	0.000000	0.000000	0.000000	0.638097	0.000000	-0.000000	1.000000	
1543	0.000000	0.000000	0.000000	0.335237	0.000000	-0.000000	1.000000	
1544	0.000000	0.000000	0.000000	0.140174	0.000000	-0.000000	1.000000	
1545	0.000000	0.000000	0.000000	-0.323828	0.000000	-0.000000	1.000000	
